<?xml version="1.0" encoding="utf-8"?>
<!-- Generator: Adobe Illustrator 23.0.1, SVG Export Plug-In . SVG Version: 6.00 Build 0)  -->
<svg version="1.1" id="Layer_1" xmlns="http://www.w3.org/2000/svg" xmlns:xlink="http://www.w3.org/1999/xlink" x="0px" y="0px"
	 viewBox="0 0 1920 1080" style="enable-background:new 0 0 1920 1080;" xml:space="preserve">
<style type="text/css">
	.st0{fill:url(#SVGID_1_);}
	.st1{fill:url(#SVGID_2_);}
	.st2{fill:none;}
	.st3{opacity:0.15;fill:url(#SVGID_3_);}
	.st4{opacity:0.5;fill:url(#SVGID_4_);}
	.st5{fill:url(#SVGID_5_);}
	.st6{opacity:3.000000e-02;fill:none;stroke:#FFFFFF;stroke-width:2;stroke-miterlimit:10;}
</style>
<linearGradient id="SVGID_1_" gradientUnits="userSpaceOnUse" x1="-13.7932" y1="613.8901" x2="1924.063" y2="613.8901" gradientTransform="matrix(1 0 0 -1 0 1080)">
	<stop  offset="0" style="stop-color:#FF7BAC"/>
	<stop  offset="1" style="stop-color:#FF7BAC;stop-opacity:0"/>
</linearGradient>
<path class="st0" d="M252.6,833.7c17.9,0,35.7,4.7,51.5,12.9c15.9,8.2,29.9,19.7,42,32.8s22.4,27.8,31,43.4
	c8.7,15.6,15.7,32,21.5,48.8h-0.8c6-16.2,13.2-31.9,21.9-46.8c8.7-14.8,19-28.9,31-41.3c12-12.4,25.8-23.2,41.3-30.8
	s32.7-11.9,50-11.8c17.3,0.1,34.5,4.5,49.9,12.3s29.2,18.7,41.1,31.1c11.9,12.5,22.1,26.6,30.7,41.4c8.7,14.9,15.8,30.7,21.7,46.8
	h-0.6c6-17.3,13.4-34.1,22.4-50s19.8-30.9,32.5-44s27.5-24.4,44.2-32.2c16.6-7.7,35.2-11.5,53.5-10.3c9.2,0.6,18.2,2.4,27,5.2
	c8.7,2.8,17.1,6.7,25,11.4c15.7,9.5,29.5,22,41.2,36c11.8,14,21.6,29.6,29.8,45.9c8.3,16.3,14.8,33.5,20.2,50.9h-1
	c5.6-17.8,12.4-35.2,20.9-51.9c8.5-16.6,18.6-32.6,30.8-46.9c6.1-7.2,12.7-14,19.9-20.1c7.2-6.2,15-11.8,23.3-16.5
	c8.4-4.7,17.3-8.5,26.7-11.1c9.3-2.6,19.1-4.1,28.9-4.2c9.8-0.1,19.6,1.1,29.2,3.5s18.7,6.1,27.4,10.7c17.3,9.2,32.4,22,45.2,36.5
	c12.8,14.5,23.4,30.7,32.2,47.7c8.8,17,15.7,34.9,21.3,53.1l-14.9-0.2c5.8-16.7,12.9-33.1,21.6-48.7c8.7-15.6,18.9-30.4,31.1-43.7
	c12.1-13.3,26.2-25.1,42.3-33.8c16-8.7,34.1-14.2,52.5-14.9s36.8,3.2,53.3,11c16.5,7.7,31,18.7,43.5,31.4s23,27.1,31.9,42.3
	c8.9,15.2,16.2,31.3,22.2,47.7h-6.1c6.6-16.8,14.5-33.1,24-48.5c9.5-15.3,20.7-29.7,33.8-42.2c13.1-12.4,28.1-23.1,44.9-30
	c8.4-3.4,17.1-5.9,26.1-7.4c8.9-1.4,18-1.6,27-0.7c9,0.9,17.8,2.9,26.3,5.8c8.5,3,16.6,7,24.2,11.8c15.3,9.5,28.6,21.9,40.1,35.6
	c5.7,6.9,11,14.2,15.9,21.7c4.8,7.5,9.3,15.3,13.3,23.3c8.1,16,14.6,32.7,19.9,49.8l-0.5-0.3h58.4l-0.5,0.5l-1.9-825.5l0.4,0.4
	c-88.9-1.1-177.9-1.8-266.8-2c-44.5-0.1-88.9-0.1-133.4-0.1l-66.7,0.1c-2.8,0-5.6-0.1-8.3-0.2c-2.8-0.1-5.6-0.1-8.3-0.3l-8.3-0.4
	l-8.3-0.6c-2.8-0.2-5.5-0.5-8.3-0.8s-5.5-0.5-8.3-0.9c-5.5-0.7-11.1-1.3-16.5-2.2c-44-6.5-87.1-18.8-128.6-34.6
	c-20.8-7.9-41.2-16.7-61.3-26.3c-20.1-9.6-39.8-20-59.1-30.8l-7.3-4.1c-2.4-1.4-4.8-2.7-7.2-4.2l-14.3-8.5
	c-4.8-2.9-9.5-5.8-14.2-8.7l-7.1-4.4l-7-4.5c-18.8-11.9-37.1-24.5-55.2-37.4C983.5-25.1,948.4-52.5,914.3-81l0.2,0.1h-916l0.4-0.4
	L-5.4,997l-0.5-0.5H99.3l-0.5,0.4c2.5-9.7,5.4-19.2,8.8-28.7c3.3-9.4,7.1-18.7,11.3-27.8c8.5-18.1,18.8-35.4,31.4-51
	c12.6-15.6,27.5-29.4,44.9-39.5C212.5,839.6,232.5,833.8,252.6,833.7z M252.6,834.7c-19.9,0.1-39.7,5.8-56.9,16
	c-17.2,10-32.1,23.8-44.6,39.3s-22.8,32.8-31.3,50.8c-4.2,9-8,18.3-11.3,27.7s-6.2,18.9-8.8,28.6l-0.1,0.4h-0.4H-6h-0.4V997
	L-2.3-81.1v-0.4h0.4h916h0.1l0.1,0.1c34.1,28.5,69.2,55.8,105.3,81.6c18.2,12.8,36.5,25.4,55.2,37.3l7,4.5l7.1,4.4
	c4.7,2.9,9.4,5.9,14.2,8.7l14.3,8.5c2.4,1.4,4.8,2.8,7.2,4.2l7.3,4.1c19.4,10.9,39,21.3,59.1,30.8s40.5,18.4,61.2,26.3
	c41.5,15.8,84.5,28,128.5,34.5c5.5,0.9,11,1.5,16.5,2.2c2.8,0.3,5.5,0.6,8.3,0.9c2.8,0.3,5.5,0.6,8.3,0.8l8.3,0.6l8.3,0.4
	c2.8,0.2,5.6,0.2,8.3,0.3c2.8,0,5.6,0.2,8.3,0.2l66.7-0.1c44.5-0.1,88.9-0.1,133.4,0c88.9,0.2,177.9,0.9,266.8,2h0.4v0.4l2.1,825.5
	v0.5h-0.5h-58.4h-0.4l-0.1-0.3c-5.3-17-11.8-33.7-19.9-49.6c-4-8-8.4-15.7-13.3-23.2c-4.8-7.5-10.1-14.7-15.8-21.6
	c-11.4-13.7-24.7-25.9-39.9-35.2c-7.6-4.6-15.7-8.5-24.1-11.4s-17.2-4.8-26-5.5s-17.8-0.4-26.5,1.1s-17.3,4.1-25.4,7.6
	s-15.8,8-23.1,13.1c-7.2,5.1-14,10.9-20.2,17.1c-12.5,12.5-23.1,26.9-32,42.2s-16.2,31.5-22.2,48.2l-2.9,8.2l-3.2-8.1
	c-6.3-15.9-13.9-31.4-23-45.8c-9-14.5-19.6-27.9-31.8-39.7c-12.2-11.7-26.1-21.5-41.3-28.1c-15.2-6.7-31.7-9.7-48.1-8.7
	c-16.3,1-32.2,6.2-46.5,14.3s-27,19.1-38.1,31.6s-20.5,26.5-28.6,41.3s-14.7,30.4-20.1,46.4l-7.8,22.7l-7.1-23
	c-2.7-8.7-5.7-17.3-9.1-25.7c-3.3-8.4-7.1-16.7-11.3-24.7c-8.3-16.1-18-31.4-29.6-45c-11.6-13.7-25-25.7-40.2-34.7
	c-7.6-4.5-15.7-8.1-24.2-10.7c-8.4-2.6-17.2-4.1-26-4.5c-17.7-0.9-35.7,3.3-51.9,11.2c-16.3,8-30.9,19.5-43.5,33s-23.2,28.8-32.2,45
	c-8.9,16.3-16,33.5-21.7,51.2l-0.5,1.7l-0.5-1.7c-5.2-17.5-11.8-34.6-20-50.8c-8.2-16.3-18-31.8-29.7-45.8s-25.3-26.5-41-35.9
	c-15.6-9.4-33.3-15.4-51.6-16.6c-18.2-1.2-36.7,2.5-53.2,10.1c-16.6,7.7-31.3,18.9-44,32s-23.4,28.1-32.4,43.9
	c-9,15.9-16.4,32.7-22.4,49.9l-0.3,0.8l-0.3-0.8c-5.9-16.1-13-31.9-21.7-46.7s-18.8-28.9-30.7-41.3c-11.9-12.4-25.5-23.2-40.9-31
	c-15.3-7.8-32.4-12.1-49.6-12.2c-17.2-0.1-34.3,4.2-49.7,11.8c-15.4,7.6-29.1,18.4-41.1,30.7c-11.9,12.4-22.1,26.4-30.8,41.2
	c-8.7,14.8-15.8,30.5-21.8,46.6l-0.4,1.1l-0.4-1.1c-5.8-16.8-12.8-33.2-21.5-48.7S357,892.9,345,879.9s-26-24.4-41.8-32.5
	C288,839.4,270.3,834.8,252.6,834.7z"/>
<radialGradient id="SVGID_2_" cx="955.14" cy="498.5599" r="765.4814" gradientUnits="userSpaceOnUse">
	<stop  offset="0" style="stop-color:#C1272D;stop-opacity:0.53"/>
	<stop  offset="6.700000e-02" style="stop-color:#BB3031;stop-opacity:0.5052"/>
	<stop  offset="0.1784" style="stop-color:#A94A3A;stop-opacity:0.464"/>
	<stop  offset="0.3204" style="stop-color:#8D734A;stop-opacity:0.4114"/>
	<stop  offset="0.4859" style="stop-color:#67AC60;stop-opacity:0.3502"/>
	<stop  offset="0.5674" style="stop-color:#52CB6C;stop-opacity:0.32"/>
	<stop  offset="0.8738" style="stop-color:#877D44;stop-opacity:0.42"/>
	<stop  offset="0.9944" style="stop-color:#D48083;stop-opacity:0.47"/>
</radialGradient>
<path class="st1" d="M1914.1,171.4c-95-1.2-239.9-2.5-429-2c-26.8,0.1-33,0.1-40,0c-99.7-1.8-239.2-36.1-426.1-169.2H-2.2L-5.9,997
	H99.3c24.7-95.5,84-162.8,153.3-162.8c63,0,117.8,55.6,145.7,137.5c28.6-78,82.1-130.5,143.3-130.5c61.4,0,115.1,52.9,143.6,131.5
	c28.1-81.3,82.7-136.5,145.4-136.5c66.1,0,123.1,61.2,149.6,149.6c27-86.3,83.3-145.6,148.4-145.6c65.8,0,122.6,60.6,149.3,148.5
	c28-81.9,82.7-137.5,145.7-137.5c60.4,0,113.2,51.1,142.1,127.5c28.7-77.5,81.9-129.5,142.9-129.5c65.6,0,122.3,60.3,149.1,147.7
	h58.4L1914.1,171.4z"/>
<g>
	<line class="st2" x1="2168.3" y1="428.7" x2="2105" y2="800.2"/>
	<circle class="st2" cx="2168.3" cy="428.7" r="314.1"/>
	<circle class="st2" cx="2168.3" cy="428.7" r="376.9"/>
	<polyline class="st2" points="2168.3,428.7 1809.5,883.4 2168.3,428.7 2527.2,-26 2168.3,428.7 1713.6,69.9 2168.3,428.7 
		2623,787.6 2168.3,428.7 1105.2,1871.9 2168.3,428.7 3231.4,-1014.4 2168.3,428.7 725.2,-634.4 2168.3,428.7 3611.5,1491.8 
		2168.3,428.7 2002,415.8 2168.3,428.7 2334.6,441.6 2168.3,428.7 2181.2,262.4 2168.3,428.7 2155.4,595 2168.3,428.7 
		1770.2,1466.6 2168.3,428.7 2566.5,-609.2 2168.3,428.7 1130.4,30.6 2168.3,428.7 3206.2,826.9 2168.3,428.7 1960.2,683.4 
		2168.3,428.7 2376.5,174.1 2168.3,428.7 1913.7,220.6 2168.3,428.7 2423,636.9 2168.3,428.7 1699.3,412.4 2168.3,428.7 2637.3,445 
		2168.3,428.7 2184.6,-40.3 2168.3,428.7 2152,897.7 2168.3,428.7 1408.9,441 2168.3,428.7 2927.8,416.4 2168.3,428.7 2156,-330.7 
		2168.3,428.7 2180.6,1188.2 2168.3,428.7 1075.3,816.9 2168.3,428.7 3261.4,40.6 2168.3,428.7 1780.2,-664.3 2168.3,428.7 
		2556.5,1521.8 2168.3,428.7 710.5,759 2168.3,428.7 3626.1,98.4 2168.3,428.7 1838,-1029.1 2168.3,428.7 2498.6,1886.5 
		2168.3,428.7 1103,1567 2168.3,428.7 3233.6,-709.6 2168.3,428.7 1030,-636.6 2168.3,428.7 3306.6,1494 2168.3,428.7 2092.1,490.2 
		2168.3,428.7 2244.5,367.2 2168.3,428.7 2106.8,352.5 2168.3,428.7 2229.8,504.9 2168.3,428.7 830.8,1555.1 2168.3,428.7 
		3505.9,-697.6 2168.3,428.7 1042,-908.8 2168.3,428.7 3294.7,1766.3 2168.3,428.7 404.1,920.9 2168.3,428.7 3932.5,-63.4 
		2168.3,428.7 1676.2,-1335.5 2168.3,428.7 2660.5,2192.9 2168.3,428.7 824.2,449 2168.3,428.7 3512.4,408.4 2168.3,428.7 
		2148,-915.4 2168.3,428.7 2188.6,1772.8 2168.3,428.7 1927,1676.4 2168.3,428.7 2409.6,-819 2168.3,428.7 920.6,187.4 
		2168.3,428.7 3416,670 	"/>
	<radialGradient id="SVGID_3_" cx="2168.3201" cy="428.72" r="753.7682" gradientUnits="userSpaceOnUse">
		<stop  offset="0" style="stop-color:#230000"/>
		<stop  offset="0.73" style="stop-color:#93432A"/>
		<stop  offset="1" style="stop-color:#230000"/>
	</radialGradient>
	<circle class="st3" cx="2168.3" cy="428.7" r="753.8"/>
	<radialGradient id="SVGID_4_" cx="2168.3201" cy="428.72" r="376.8841" gradientUnits="userSpaceOnUse">
		<stop  offset="0.15" style="stop-color:#FFFFFF"/>
		<stop  offset="0.2114" style="stop-color:#E2D1D2"/>
		<stop  offset="0.2918" style="stop-color:#BF9A9C"/>
		<stop  offset="0.3613" style="stop-color:#A67276"/>
		<stop  offset="0.4163" style="stop-color:#975A5E"/>
		<stop  offset="0.45" style="stop-color:#915155"/>
		<stop  offset="0.5553" style="stop-color:#6C3638"/>
		<stop  offset="0.6842" style="stop-color:#44191A"/>
		<stop  offset="0.787" style="stop-color:#2C0707"/>
		<stop  offset="0.85" style="stop-color:#230000"/>
		<stop  offset="0.8572" style="stop-color:#270201"/>
		<stop  offset="0.8647" style="stop-color:#340805"/>
		<stop  offset="0.8723" style="stop-color:#48120B"/>
		<stop  offset="0.88" style="stop-color:#652114"/>
		<stop  offset="0.8878" style="stop-color:#8B331F"/>
		<stop  offset="0.8955" style="stop-color:#B8492D"/>
		<stop  offset="0.9" style="stop-color:#D65836"/>
		<stop  offset="0.903" style="stop-color:#C95232"/>
		<stop  offset="0.9146" style="stop-color:#9D3C25"/>
		<stop  offset="0.9267" style="stop-color:#782A1A"/>
		<stop  offset="0.9392" style="stop-color:#591B10"/>
		<stop  offset="0.9523" style="stop-color:#410F09"/>
		<stop  offset="0.9661" style="stop-color:#300604"/>
		<stop  offset="0.9812" style="stop-color:#260201"/>
		<stop  offset="1" style="stop-color:#230000"/>
	</radialGradient>
	<circle class="st4" cx="2168.3" cy="428.7" r="376.9"/>
	<radialGradient id="SVGID_5_" cx="2168.3201" cy="428.72" r="314.0701" gradientUnits="userSpaceOnUse">
		<stop  offset="0.15" style="stop-color:#FFFFFF"/>
		<stop  offset="0.2824" style="stop-color:#C2C2C2"/>
		<stop  offset="0.4253" style="stop-color:#888888"/>
		<stop  offset="0.5636" style="stop-color:#575757"/>
		<stop  offset="0.6936" style="stop-color:#313131"/>
		<stop  offset="0.8134" style="stop-color:#161616"/>
		<stop  offset="0.9192" style="stop-color:#060606"/>
		<stop  offset="1" style="stop-color:#000000"/>
	</radialGradient>
	<circle class="st5" cx="2168.3" cy="428.7" r="314.1"/>
	<polyline class="st6" points="2168.3,428.7 1809.5,883.4 2168.3,428.7 2527.2,-26 2168.3,428.7 1713.6,69.9 2168.3,428.7 
		2623,787.6 2168.3,428.7 1105.2,1871.9 2168.3,428.7 3231.4,-1014.4 2168.3,428.7 725.2,-634.4 2168.3,428.7 3611.5,1491.8 
		2168.3,428.7 2002,415.8 2168.3,428.7 2334.6,441.6 2168.3,428.7 2181.2,262.4 2168.3,428.7 2155.4,595 2168.3,428.7 
		1770.2,1466.6 2168.3,428.7 2566.5,-609.2 2168.3,428.7 1130.4,30.6 2168.3,428.7 3206.2,826.9 2168.3,428.7 1960.2,683.4 
		2168.3,428.7 2376.5,174.1 2168.3,428.7 1913.7,220.6 2168.3,428.7 2423,636.9 2168.3,428.7 1699.3,412.4 2168.3,428.7 2637.3,445 
		2168.3,428.7 2184.6,-40.3 2168.3,428.7 2152,897.7 2168.3,428.7 1408.9,441 2168.3,428.7 2927.8,416.4 2168.3,428.7 2156,-330.7 
		2168.3,428.7 2180.6,1188.2 2168.3,428.7 1075.3,816.9 2168.3,428.7 3261.4,40.6 2168.3,428.7 1780.2,-664.3 2168.3,428.7 
		2556.5,1521.8 2168.3,428.7 710.5,759 2168.3,428.7 3626.1,98.4 2168.3,428.7 1838,-1029.1 2168.3,428.7 2498.6,1886.5 
		2168.3,428.7 1103,1567 2168.3,428.7 3233.6,-709.6 2168.3,428.7 1030,-636.6 2168.3,428.7 3306.6,1494 2168.3,428.7 2092.1,490.2 
		2168.3,428.7 2244.5,367.2 2168.3,428.7 2106.8,352.5 2168.3,428.7 2229.8,504.9 2168.3,428.7 830.8,1555.1 2168.3,428.7 
		3505.9,-697.6 2168.3,428.7 1042,-908.8 2168.3,428.7 3294.7,1766.3 2168.3,428.7 404.1,920.9 2168.3,428.7 3932.5,-63.4 
		2168.3,428.7 1676.2,-1335.5 2168.3,428.7 2660.5,2192.9 2168.3,428.7 824.2,449 2168.3,428.7 3512.4,408.4 2168.3,428.7 
		2148,-915.4 2168.3,428.7 2188.6,1772.8 2168.3,428.7 1927,1676.4 2168.3,428.7 2409.6,-819 2168.3,428.7 920.6,187.4 
		2168.3,428.7 3416,670 	"/>
</g>
</svg>
